<svg xmlns="http://www.w3.org/2000/svg" xmlns:xlink="http://www.w3.org/1999/xlink" width="500" zoomAndPan="magnify" viewBox="0 0 375 374.999991" height="500" preserveAspectRatio="xMidYMid meet" version="1.0"><path fill="#000000" d="M 61.074219 60.828125 C 131.007812 -9.105469 244.390625 -9.105469 314.324219 60.828125 C 384.257812 130.761719 384.257812 244.144531 314.324219 314.078125 C 244.390625 384.011719 131.007812 384.011719 61.074219 314.078125 C -8.859375 244.144531 -8.859375 130.761719 61.074219 60.828125 " fill-opacity="1" fill-rule="evenodd"/><path fill="#000000" d="M 74.082031 73.460938 C 136.832031 10.710938 238.566406 10.710938 301.316406 73.460938 C 364.066406 136.210938 364.066406 237.949219 301.316406 300.695312 C 238.566406 363.445312 136.832031 363.445312 74.082031 300.695312 C 11.332031 237.949219 11.332031 136.210938 74.082031 73.460938 " fill-opacity="1" fill-rule="evenodd"/><path fill="#ffffff" d="M 187.699219 29.402344 C 147.347656 29.402344 106.992188 44.796875 76.207031 75.582031 C 45.417969 106.371094 30.023438 146.726562 30.023438 187.078125 C 30.023438 227.429688 45.417969 267.785156 76.207031 298.570312 C 106.992188 329.359375 147.347656 344.753906 187.699219 344.753906 C 228.050781 344.753906 268.40625 329.359375 299.195312 298.570312 C 329.980469 267.785156 345.375 227.429688 345.375 187.078125 C 345.375 146.726562 329.980469 106.371094 299.195312 75.582031 C 268.40625 44.796875 228.050781 29.402344 187.699219 29.402344 M 71.960938 71.335938 C 103.921875 39.375 145.808594 23.394531 187.699219 23.394531 C 229.589844 23.394531 271.480469 39.375 303.441406 71.335938 C 335.402344 103.296875 351.382812 145.1875 351.382812 187.078125 C 351.382812 228.964844 335.402344 270.859375 303.441406 302.820312 C 271.480469 334.78125 229.589844 350.761719 187.699219 350.761719 C 145.808594 350.761719 103.921875 334.78125 71.960938 302.820312 C 39.996094 270.855469 24.015625 228.964844 24.015625 187.078125 C 24.015625 145.1875 39.996094 103.296875 71.960938 71.335938 Z M 71.960938 71.335938 " fill-opacity="1" fill-rule="nonzero"/><path fill="#ffffff" d="M 161.453125 161.207031 C 175.949219 146.710938 199.449219 146.710938 213.945312 161.207031 C 228.441406 175.703125 228.441406 199.207031 213.945312 213.699219 C 199.453125 228.199219 175.949219 228.199219 161.453125 213.699219 C 146.957031 199.207031 146.957031 175.703125 161.453125 161.207031 M 147.382812 147.136719 C 169.648438 124.871094 205.75 124.871094 228.015625 147.136719 C 250.285156 169.402344 250.285156 205.503906 228.015625 227.769531 C 205.75 250.035156 169.648438 250.035156 147.382812 227.769531 C 125.117188 205.503906 125.117188 169.402344 147.382812 147.136719 Z M 147.382812 147.136719 " fill-opacity="1" fill-rule="evenodd"/><path fill="#000000" d="M 161.609375 161.359375 L 161.605469 161.359375 L 161.605469 161.363281 C 154.398438 168.566406 150.796875 178.007812 150.796875 187.457031 C 150.796875 196.898438 154.398438 206.34375 161.605469 213.546875 L 161.605469 213.550781 L 161.609375 213.550781 C 168.8125 220.753906 178.257812 224.355469 187.699219 224.355469 C 197.144531 224.355469 206.589844 220.753906 213.792969 213.550781 L 213.796875 213.546875 C 221 206.34375 224.605469 196.898438 224.605469 187.457031 C 224.605469 178.011719 221 168.566406 213.796875 161.363281 L 213.792969 161.359375 C 206.589844 154.152344 197.144531 150.550781 187.699219 150.550781 C 178.257812 150.550781 168.8125 154.152344 161.609375 161.359375 M 161.300781 161.054688 C 168.589844 153.765625 178.144531 150.117188 187.699219 150.117188 C 197.253906 150.117188 206.808594 153.765625 214.097656 161.054688 L 214.101562 161.054688 C 221.390625 168.34375 225.035156 177.898438 225.035156 187.453125 C 225.035156 197.007812 221.390625 206.5625 214.101562 213.851562 L 214.097656 213.855469 C 206.808594 221.144531 197.253906 224.789062 187.699219 224.789062 C 178.144531 224.789062 168.589844 221.144531 161.300781 213.855469 L 161.296875 213.851562 C 154.007812 206.5625 150.367188 197.007812 150.367188 187.453125 C 150.367188 177.902344 154.007812 168.34375 161.296875 161.054688 Z M 187.699219 130.65625 C 173.164062 130.65625 158.625 136.199219 147.535156 147.289062 C 136.445312 158.378906 130.898438 172.917969 130.898438 187.457031 C 130.898438 201.992188 136.445312 216.527344 147.535156 227.617188 C 158.625 238.710938 173.164062 244.253906 187.699219 244.253906 C 202.234375 244.253906 216.773438 238.710938 227.863281 227.617188 C 238.953125 216.527344 244.5 201.992188 244.5 187.457031 C 244.5 172.917969 238.953125 158.378906 227.863281 147.289062 C 216.773438 136.199219 202.234375 130.65625 187.699219 130.65625 Z M 147.230469 146.984375 C 158.40625 135.808594 173.050781 130.222656 187.699219 130.222656 C 202.347656 130.222656 216.992188 135.808594 228.171875 146.984375 C 239.34375 158.160156 244.933594 172.808594 244.933594 187.457031 C 244.933594 202.101562 239.34375 216.746094 228.171875 227.921875 C 216.992188 239.097656 202.347656 244.6875 187.699219 244.6875 C 173.050781 244.6875 158.40625 239.097656 147.230469 227.921875 C 136.054688 216.746094 130.46875 202.101562 130.46875 187.457031 C 130.46875 172.808594 136.054688 158.160156 147.230469 146.984375 Z M 147.230469 146.984375 " fill-opacity="1" fill-rule="nonzero"/><path fill="#ffffff" d="M 69.195312 79.789062 L 71.546875 77.4375 L 153.734375 165.515625 L 149.148438 170.101562 Z M 69.195312 79.789062 " fill-opacity="1" fill-rule="evenodd"/><path fill="#ffffff" d="M 80.03125 68.949219 L 78.859375 70.125 L 77.683594 71.300781 L 165.761719 153.488281 L 170.347656 148.902344 Z M 80.03125 68.949219 " fill-opacity="1" fill-rule="evenodd"/><path fill="#ffffff" d="M 295.363281 68.949219 L 296.542969 70.125 L 297.71875 71.300781 L 209.640625 153.488281 L 208.519531 152.371094 L 206.167969 150.019531 L 205.054688 148.902344 Z M 295.363281 68.949219 " fill-opacity="1" fill-rule="evenodd"/><path fill="#ffffff" d="M 306.203125 79.789062 L 303.851562 77.4375 L 221.664062 165.515625 L 226.25 170.101562 Z M 306.203125 79.789062 " fill-opacity="1" fill-rule="evenodd"/><path fill="#ffffff" d="M 306.203125 295.121094 L 303.851562 297.472656 L 221.664062 209.390625 L 222.78125 208.277344 L 226.25 204.808594 Z M 306.203125 295.121094 " fill-opacity="1" fill-rule="evenodd"/><path fill="#ffffff" d="M 295.363281 305.957031 L 296.542969 304.785156 L 297.71875 303.605469 L 209.636719 221.421875 L 208.519531 222.535156 L 207.34375 223.714844 L 206.167969 224.886719 L 205.054688 226.003906 Z M 295.363281 305.957031 " fill-opacity="1" fill-rule="evenodd"/><path fill="#ffffff" d="M 80.03125 305.957031 L 78.855469 304.785156 L 77.683594 303.605469 L 165.761719 221.417969 L 166.878906 222.535156 L 168.054688 223.714844 L 169.230469 224.886719 L 170.347656 226.003906 Z M 80.03125 305.957031 " fill-opacity="1" fill-rule="evenodd"/><path fill="#ffffff" d="M 69.195312 295.121094 L 71.546875 297.472656 L 153.734375 209.390625 L 152.617188 208.277344 L 150.265625 205.925781 L 149.148438 204.804688 Z M 69.195312 295.121094 " fill-opacity="1" fill-rule="evenodd"/><path fill="#ffffff" d="M 77.894531 151.917969 L 89.066406 150.484375 C 92.136719 150.09375 94.972656 152.285156 95.367188 155.355469 L 103.699219 220.523438 C 104.09375 223.597656 101.902344 226.429688 98.828125 226.824219 L 87.65625 228.253906 C 84.585938 228.648438 81.75 226.457031 81.355469 223.382812 L 73.023438 158.214844 C 72.628906 155.140625 74.820312 152.308594 77.894531 151.917969 " fill-opacity="1" fill-rule="evenodd"/><path fill="#ffffff" d="M 54.253906 163.878906 L 65.425781 162.449219 C 68.5 162.054688 71.335938 164.246094 71.726562 167.320312 L 77.777344 214.613281 C 78.167969 217.683594 75.976562 220.519531 72.90625 220.910156 L 61.734375 222.339844 C 58.660156 222.730469 55.824219 220.542969 55.433594 217.46875 L 49.386719 170.175781 C 48.992188 167.105469 51.183594 164.269531 54.253906 163.878906 " fill-opacity="1" fill-rule="evenodd"/><path fill="#ffffff" d="M 297.503906 151.917969 L 286.332031 150.484375 C 283.261719 150.09375 280.425781 152.285156 280.035156 155.355469 L 271.699219 220.523438 C 271.304688 223.597656 273.496094 226.429688 276.570312 226.824219 L 287.742188 228.253906 C 290.8125 228.648438 293.648438 226.457031 294.042969 223.382812 L 302.375 158.214844 C 302.769531 155.140625 300.578125 152.308594 297.503906 151.917969 " fill-opacity="1" fill-rule="evenodd"/><path fill="#ffffff" d="M 321.144531 163.878906 L 309.96875 162.449219 C 306.898438 162.054688 304.066406 164.246094 303.671875 167.320312 L 297.621094 214.613281 C 297.230469 217.683594 299.421875 220.519531 302.492188 220.910156 L 313.664062 222.339844 C 316.738281 222.730469 319.570312 220.542969 319.964844 217.46875 L 326.011719 170.175781 C 326.40625 167.105469 324.214844 164.269531 321.144531 163.878906 " fill-opacity="1" fill-rule="evenodd"/><path fill="#ffffff" d="M 223.335938 177.042969 C 242.527344 177.734375 261.628906 178.984375 280.648438 180.804688 L 279.710938 190.742188 C 261.492188 188.992188 243.191406 187.773438 224.8125 187.085938 C 224.78125 183.699219 224.289062 180.320312 223.335938 177.042969 M 94.769531 180.804688 C 113.945312 179.019531 133.042969 177.785156 152.054688 177.085938 C 151.105469 180.363281 150.613281 183.742188 150.585938 187.121094 C 132.355469 187.824219 114.050781 189.027344 95.667969 190.742188 Z M 94.769531 180.804688 " fill-opacity="1" fill-rule="nonzero"/><path fill="#ffffff" d="M 103.792969 64.167969 C 154.226562 29.65625 221.175781 29.65625 271.609375 64.167969 C 219.933594 37.160156 155.46875 37.160156 103.792969 64.167969 " fill-opacity="1" fill-rule="evenodd"/><path fill="#ffffff" d="M 103.792969 308.148438 C 154.226562 342.660156 221.175781 342.660156 271.609375 308.148438 C 219.933594 335.15625 155.46875 335.15625 103.792969 308.148438 " fill-opacity="1" fill-rule="evenodd"/><path fill="#000000" d="M 187.699219 135.535156 C 204.167969 135.535156 218.84375 143.203125 228.355469 155.167969 C 218.851562 144.613281 205.085938 137.976562 189.765625 137.976562 C 161.089844 137.976562 137.847656 161.21875 137.847656 189.894531 C 137.847656 202.101562 142.058594 213.316406 149.109375 222.183594 C 140.824219 212.984375 135.78125 200.808594 135.78125 187.453125 C 135.78125 158.78125 159.027344 135.535156 187.699219 135.535156 " fill-opacity="1" fill-rule="evenodd"/></svg>